<?xml version="1.0" encoding="UTF-8"?>
<svg id="Layer_1" data-name="Layer 1" xmlns="http://www.w3.org/2000/svg" viewBox="0 0 2258.2 2526.82">
  <defs>
    <style>
      .cls-1 {
        fill: #2a1d0a;
      }
    </style>
  </defs>
  <polygon class="cls-1" points="1123.3 0 375.91 757.28 1099.77 1490.88 872.38 1721.23 638.15 1483.62 744.01 1376.22 597.54 1237.15 354.58 1483.55 872.34 2008.56 1383.35 1490.34 659.82 756.91 1207.76 202.08 2056.12 202.08 2056.12 1564.23 1123.89 2510 1408.05 2511.19 2258.2 1647.06 2258.2 0 1123.3 0"/>
  <polygon class="cls-1" points="1895.72 1506.9 1536.26 1143.04 1536.64 1142.68 1536.93 1142.97 1883.28 791.71 1739.45 650.01 1394.86 999.22 1178.68 780.43 1179.05 780.08 1179.33 780.38 1520.54 434.33 1376.71 292.61 895.61 780.54 1611.6 1507.32 891.48 2238.09 202.08 1545.67 202.08 202.08 694.17 202.08 890.31 0 0 0 0 1628.53 891.71 2526.82 1895.72 1506.9"/>
</svg>